<?xml version="1.0" encoding="utf-8"?>
<!-- Generator: Adobe Illustrator 24.3.0, SVG Export Plug-In . SVG Version: 6.00 Build 0)  -->
<svg version="1.1" id="Calque_1" xmlns="http://www.w3.org/2000/svg" xmlns:xlink="http://www.w3.org/1999/xlink" x="0px" y="0px"
	 viewBox="0 0 255.84 247.81" enable-background="new 0 0 255.84 247.81" xml:space="preserve">
<image display="none" overflow="visible" width="50" height="49" xlink:href="../../Screenshots/bg-corner.png"  transform="matrix(5.305 0 0 5.305 3.1026 -14.5331)">
</image>
<g>
	<path fill="#E18036" d="M126.6,0.09c0,0-119.51-0.04-122.1,0C-2.15,1.7-2.12,20.15,9.31,23.16s30.67,6.77,33.07,12.34
		C44.78,41.06,63,70.92,71.01,75.39c8,4.46,26.46,12.59,37.58,5.06c11.12-7.52,20.55-15.07,27.98-21.41
		c9.04-7.7,19.89-11.98,25.93-12.74c22.22-2.81,38.8,9.1,42.64,20.01c5.01,14.25,5.62,33.89-7.38,49.47
		c-9.2,11.03-18.74,19.47-22.05,33.47s4.51,37.16,21.35,46.64c16.84,9.48,27.96,12.49,31.27,25.58s4.66,26.93,14.88,26.33
		c10.22-0.6,12.63-3.46,12.63-10.68s-0.15-192.44,0-199.36c0.15-6.92-3.61-38.33-40.59-37.75S126.6,0.09,126.6,0.09z"/>
	<g>
		<path fill="#B66B37" d="M124.77,3.9c0,0-117.78-0.04-120.33,0c-6.56,1.58-6.52,19.75,4.74,22.71s30.22,6.67,32.59,12.15
			S56.19,70.5,63.84,76.39c11.24,8.65,32.24,13.07,44.61,6.18c11.56-6.44,25.1-23.74,32.53-29.86c11.46-9.45,27.9-12.23,36.61-10.87
			c11.79,1.84,28.02,10.98,31.8,21.72c4.94,14.03,7.71,33.03-5.1,48.38c-9.07,10.86-30.74,26.06-34,39.83
			c-3.26,13.78,4.44,36.59,21.04,45.93s30.44,11.28,33.7,24.17s4.59,26.52,14.67,25.93c10.07-0.59,12.44-3.41,12.44-10.52
			s-0.15-189.48,0-196.3s-3.56-37.74-40-37.17S124.77,3.9,124.77,3.9z"/>
	</g>
	<g>
		<path fill="#CA7135" d="M124.77,3.9c0,0-117.78-0.04-120.33,0c-6.56,1.58-6.52,19.75,4.74,22.71s30.22,6.67,32.59,12.15
			s17.7,31.87,24.85,37.19c7.25,5.39,31.85,11.39,42.81,3.98s24.11-21.09,31.54-27.22c11.46-9.45,27.9-12.23,36.61-10.87
			c11.79,1.84,28.02,10.98,31.8,21.72c4.94,14.03,7.71,33.03-5.1,48.38c-9.07,10.86-27.85,25.04-31.11,38.81
			c-3.26,13.78,4.44,36.59,21.04,45.93c16.59,9.33,27.56,12.3,30.81,25.19s4.59,26.52,14.67,25.93
			c10.07-0.59,12.44-3.41,12.44-10.52s-0.15-189.48,0-196.3s-3.56-37.74-40-37.17S124.77,3.9,124.77,3.9z"/>
	</g>
</g>
</svg>
